<svg width="1080" height="1080" viewBox="0 0 680 680" role="img" xmlns="http://www.w3.org/2000/svg">
<title>Preqal QMS Foundations eCourse – Premium Social Post v3</title>
<desc>1:1 premium social post. Near-black background, gold and white only.</desc>
<style>text { font-family: 'Inter', -apple-system, BlinkMacSystemFont, 'Segoe UI', sans-serif; }</style>

<rect width="680" height="680" fill="#0A0C12"/>
<rect x="0" y="500" width="680" height="180" fill="#060810"/>

<rect x="0" y="0" width="680" height="2" fill="#C9972A"/>
<rect x="0" y="678" width="680" height="2" fill="#C9972A"/>

<rect x="616" y="18" width="44" height="1.5" fill="#C9972A" opacity="0.5"/>
<rect x="657.5" y="18" width="1.5" height="44" fill="#C9972A" opacity="0.5"/>
<rect x="18" y="659" width="44" height="1.5" fill="#C9972A" opacity="0.5"/>
<rect x="18" y="617.5" width="1.5" height="44" fill="#C9972A" opacity="0.5"/>

<text x="48" y="66" font-size="24" font-weight="800" fill="#FFFFFF" letter-spacing="8">PREQAL</text>
<rect x="48" y="75" width="112" height="1" fill="#C9972A"/>

<text x="632" y="66" font-size="10" font-weight="600" fill="#C9972A" text-anchor="end" letter-spacing="4">eCOURSE</text>
<rect x="535" y="75" width="97" height="1" fill="#C9972A" opacity="0.4"/>

<rect x="48" y="108" width="584" height="0.5" fill="#C9972A" opacity="0.2"/>

<text x="48" y="212" font-size="70" font-weight="800" fill="#FFFFFF">Quality</text>
<text x="48" y="294" font-size="70" font-weight="800" fill="#FFFFFF">Management</text>
<text x="48" y="376" font-size="70" font-weight="800" fill="#C9972A">Systems</text>

<text x="51" y="420" font-size="11" font-weight="300" fill="#FBF3E0" letter-spacing="9">FOUNDATIONS</text>

<rect x="48" y="442" width="584" height="0.5" fill="#C9972A" opacity="0.2"/>

<rect x="48" y="460" width="150" height="38" rx="3" fill="none" stroke="#C9972A" stroke-width="0.75"/>
<text x="123" y="484" font-size="12" font-weight="600" fill="#C9972A" text-anchor="middle" letter-spacing="2">9 MODULES</text>

<rect x="214" y="460" width="196" height="38" rx="3" fill="none" stroke="#C9972A" stroke-width="0.75" opacity="0.65"/>
<text x="312" y="484" font-size="11" font-weight="500" fill="#C9972A" text-anchor="middle" letter-spacing="2" opacity="0.75">ISO 9001 ALIGNED</text>

<rect x="48" y="532" width="16" height="0.75" fill="#C9972A"/>
<text x="76" y="537" font-size="14" font-weight="300" fill="#C8D6E8" letter-spacing="0.2">Evidence-based systems &amp; documentation</text>

<rect x="48" y="560" width="16" height="0.75" fill="#C9972A"/>
<text x="76" y="565" font-size="14" font-weight="300" fill="#C8D6E8" letter-spacing="0.2">Built for Guyana &amp; the Caribbean</text>

<rect x="48" y="588" width="16" height="0.75" fill="#C9972A"/>
<text x="76" y="593" font-size="14" font-weight="300" fill="#C8D6E8" letter-spacing="0.2">From compliance gaps to audit-ready</text>

<rect x="0" y="620" width="680" height="58" fill="#040608"/>
<rect x="0" y="620" width="680" height="0.5" fill="#C9972A" opacity="0.3"/>

<text x="48" y="653" font-size="11" font-weight="300" fill="#7A8EA8" letter-spacing="2">ENROLL AT</text>
<text x="136" y="653" font-size="12" font-weight="600" fill="#C9972A" letter-spacing="2">PREQAL.ORG</text>

<text x="632" y="645" font-size="11" font-weight="400" fill="#7A8EA8" text-anchor="end">Dr. Stefan Gravesande</text>
<text x="632" y="661" font-size="10" font-weight="300" fill="#3A4A5C" text-anchor="end" letter-spacing="0.3">Founder &amp; CEO, Preqal</text>
</svg>
