<svg width="1080" height="1080" viewBox="0 0 680 680" role="img" xmlns="http://www.w3.org/2000/svg">
<title>Preqal QMS Foundations eCourse – Premium Social Post</title>
<desc>Premium 1:1 social media post promoting the Preqal Quality Management Systems Foundations eCourse. Navy, gold, and white only.</desc>
<style>
  text { font-family: 'Inter', -apple-system, BlinkMacSystemFont, 'Segoe UI', sans-serif; }
</style>

<!-- Background: darkest navy for maximum premium depth -->
<rect width="680" height="680" fill="#0F2547"/>

<!-- Subtle tonal block — slightly lighter navy in upper two-thirds -->
<rect x="0" y="0" width="680" height="460" fill="#1B3A6B"/>

<!-- Top gold rule -->
<rect x="0" y="0" width="680" height="2" fill="#C9972A"/>

<!-- Bottom gold rule -->
<rect x="0" y="678" width="680" height="2" fill="#C9972A"/>

<!-- Decorative gold corner marks -->
<rect x="620" y="20" width="40" height="1.5" fill="#C9972A" opacity="0.6"/>
<rect x="648" y="20" width="1.5" height="40" fill="#C9972A" opacity="0.6"/>
<rect x="20" y="658" width="40" height="1.5" fill="#C9972A" opacity="0.6"/>
<rect x="20" y="620" width="1.5" height="40" fill="#C9972A" opacity="0.6"/>

<!-- PREQAL wordmark -->
<text x="48" y="66" font-size="26" font-weight="800" fill="#FFFFFF" letter-spacing="6">PREQAL</text>
<rect x="48" y="76" width="100" height="1" fill="#C9972A"/>

<!-- eCourse label -->
<text x="632" y="66" font-size="11" font-weight="600" fill="#C9972A" text-anchor="end" letter-spacing="3">eCOURSE</text>
<rect x="530" y="76" width="102" height="1" fill="#C9972A" opacity="0.5"/>

<!-- Full-width separator -->
<rect x="48" y="112" width="584" height="0.5" fill="#C9972A" opacity="0.25"/>

<!-- Main heading -->
<text x="48" y="218" font-size="70" font-weight="800" fill="#FFFFFF">Quality</text>
<text x="48" y="300" font-size="70" font-weight="800" fill="#FFFFFF">Management</text>
<text x="48" y="382" font-size="70" font-weight="800" fill="#C9972A">Systems</text>

<!-- Course tier -->
<text x="51" y="426" font-size="13" font-weight="400" fill="#8AABDA" letter-spacing="7">FOUNDATIONS</text>

<!-- Gold rule beneath heading block -->
<rect x="48" y="446" width="584" height="0.5" fill="#C9972A" opacity="0.25"/>

<!-- Credentials badges — gold outlined only -->
<rect x="48" y="464" width="156" height="40" rx="4" fill="none" stroke="#C9972A" stroke-width="1"/>
<text x="126" y="489" font-size="13" font-weight="600" fill="#C9972A" text-anchor="middle" letter-spacing="1.5">9 MODULES</text>

<rect x="220" y="464" width="200" height="40" rx="4" fill="none" stroke="#C9972A" stroke-width="1" opacity="0.7"/>
<text x="320" y="489" font-size="12" font-weight="500" fill="#C9972A" text-anchor="middle" letter-spacing="1.5" opacity="0.85">ISO 9001 ALIGNED</text>

<!-- Feature lines -->
<rect x="48" y="534" width="14" height="1" fill="#C9972A"/>
<text x="74" y="538" font-size="14" font-weight="300" fill="#D8E4F0" letter-spacing="0.3">Evidence-based systems &amp; documentation</text>

<rect x="48" y="562" width="14" height="1" fill="#C9972A"/>
<text x="74" y="566" font-size="14" font-weight="300" fill="#D8E4F0" letter-spacing="0.3">Built for Guyana &amp; the Caribbean</text>

<rect x="48" y="590" width="14" height="1" fill="#C9972A"/>
<text x="74" y="594" font-size="14" font-weight="300" fill="#D8E4F0" letter-spacing="0.3">From compliance gaps to audit-ready</text>

<!-- Bottom strip -->
<rect x="0" y="622" width="680" height="56" fill="#0A1A35"/>
<rect x="0" y="622" width="680" height="0.5" fill="#C9972A" opacity="0.35"/>

<text x="48" y="654" font-size="12" font-weight="300" fill="#8AABDA" letter-spacing="1">ENROLL AT</text>
<text x="130" y="654" font-size="13" font-weight="600" fill="#C9972A" letter-spacing="1">PREQAL.ORG</text>

<text x="632" y="646" font-size="11" font-weight="400" fill="#8AABDA" text-anchor="end" letter-spacing="0.5">Dr. Stefan Gravesande</text>
<text x="632" y="662" font-size="10" font-weight="300" fill="#5A7090" text-anchor="end" letter-spacing="0.5">Founder &amp; CEO</text>
</svg>
